<svg xmlns="http://www.w3.org/2000/svg" viewBox="0 0 75.71 70.37"><defs><style>.cls-1{fill:#212121;}</style></defs><title>Anwalt</title><g id="Ebene_2" data-name="Ebene 2"><g id="Ebene_1-2" data-name="Ebene 1"><path class="cls-1" d="M75.45,31.25l-12.22-26a1.38,1.38,0,0,0-.36-.47A1.28,1.28,0,0,0,62,4.45H43.89a5.74,5.74,0,0,0-11.18,0h-19v0a1.3,1.3,0,0,0-.82.31,1.51,1.51,0,0,0-.36.47L.28,31.25a2.1,2.1,0,0,0-.28.94c0,8.29,6.39,15,14.25,15s14.25-6.74,14.25-15A1.94,1.94,0,0,0,28.12,31L15.87,7.13H32.71a5.77,5.77,0,0,0,4.23,4.28V61.46H24.22a1.34,1.34,0,0,0-1.34,1.34V69a1.34,1.34,0,0,0,1.34,1.34H52.5A1.34,1.34,0,0,0,53.83,69V62.8a1.34,1.34,0,0,0-1.33-1.34H39.61v-50a5.77,5.77,0,0,0,4.28-4.3h16L47.59,31a2,2,0,0,0-.38,1.19c0,8.29,6.39,15,14.25,15s14.25-6.74,14.25-15A2,2,0,0,0,75.45,31.25ZM3.26,31.13,13.76,8.91,25.07,30.85ZM41.36,6.05a3.12,3.12,0,1,1,0-.52A1.51,1.51,0,0,0,41.36,6.05Zm9.29,24.8L62,8.91l10.5,22.22Z"/></g></g></svg>