<svg xmlns="http://www.w3.org/2000/svg" viewBox="0 0 122.51 122.51"><defs><style>.cls-1{fill:#f49834;}.cls-2{fill:#fff;}</style></defs><title>Auszahlung_</title><g id="Ebene_2" data-name="Ebene 2"><g id="Ebene_1-2" data-name="Ebene 1"><circle id="Ellipse_173" data-name="Ellipse 173" class="cls-1" cx="61.25" cy="61.25" r="61.25"/><g id="Komponente_13_3" data-name="Komponente 13 3"><path id="Pfad_1517" data-name="Pfad 1517" class="cls-2" d="M61.76,88.75h0a27.5,27.5,0,0,1,0-55h0a27.37,27.37,0,0,1,11.17,2.38,2.5,2.5,0,0,1-2,4.57,22.5,22.5,0,0,0-9.14-2h0a22.5,22.5,0,0,0,0,45h0a22.52,22.52,0,0,0,22.5-22.48V59a2.5,2.5,0,0,1,5,0v2.3A27.53,27.53,0,0,1,61.76,88.75Z"/><path id="Pfad_1518" data-name="Pfad 1518" class="cls-2" d="M60.87,69.86a2.5,2.5,0,0,1-1.77-.74l-7.77-7.76a2.5,2.5,0,1,1,3.48-3.6l.06.06,6,6L85,39.68a2.5,2.5,0,0,1,3.53,3.54L62.64,69.13a2.51,2.51,0,0,1-1.77.73Z"/></g></g></g></svg>