<svg xmlns="http://www.w3.org/2000/svg" viewBox="0 0 55.01 55"><defs><style>.cls-1{fill:#fff;}</style></defs><title>Auszahlung_white</title><g id="Ebene_2" data-name="Ebene 2"><g id="Ebene_1-2" data-name="Ebene 1"><g id="Komponente_13_3" data-name="Komponente 13 3"><path id="Pfad_1517" data-name="Pfad 1517" class="cls-1" d="M27.51,55h0a27.5,27.5,0,0,1,0-55h0A27.45,27.45,0,0,1,38.7,2.38a2.5,2.5,0,0,1-2,4.57A22.3,22.3,0,0,0,27.52,5h0a22.5,22.5,0,1,0,0,45h0A22.53,22.53,0,0,0,50,27.51v-2.3a2.5,2.5,0,0,1,5,0v2.3A27.54,27.54,0,0,1,27.51,55Z"/><path id="Pfad_1518" data-name="Pfad 1518" class="cls-1" d="M26.62,36.1a2.49,2.49,0,0,1-1.77-.73L17.08,27.6A2.5,2.5,0,1,1,20.56,24l.06.06,6,6L50.74,5.93a2.5,2.5,0,0,1,3.53,3.53L28.39,35.37a2.52,2.52,0,0,1-1.77.74Z"/></g></g></g></svg>