<svg xmlns="http://www.w3.org/2000/svg" viewBox="0 0 88.68 77.14"><defs><style>.cls-1{fill:#212121;}</style></defs><title>Ersatzfahrzeug</title><g id="Ebene_2" data-name="Ebene 2"><g id="Ebene_1-2" data-name="Ebene 1"><path class="cls-1" d="M8.87,23.61a1.51,1.51,0,0,0-.63-.8,1.28,1.28,0,0,0-1-.08l-6.32,2a1.41,1.41,0,0,0-.89,1.69,1.41,1.41,0,0,0,1.69.9l2.94-1a41.79,41.79,0,0,0,1.07,32,1.33,1.33,0,0,0,1.25.8,1,1,0,0,0,.53-.09,1.23,1.23,0,0,0,.7-1.61,1.3,1.3,0,0,0-.08-.17A38.73,38.73,0,0,1,4.68,41.07a39.86,39.86,0,0,1,2.49-13.8l1.16,3.56a1.35,1.35,0,0,0,1.25.89.75.75,0,0,0,.44-.09,1.4,1.4,0,0,0,.89-1.69Z"/><path class="cls-1" d="M88.59,55.23l-.09-.17a1.45,1.45,0,0,0-1.78-.63l-3,1.52a40.54,40.54,0,0,0,2.76-15A40.91,40.91,0,0,0,82.71,23.7a1.33,1.33,0,1,0-2.43,1.1l0,.06a39.26,39.26,0,0,1,.8,30.37L79.51,52a1.34,1.34,0,0,0-2.41,1.16l3,6a1.54,1.54,0,0,0,.8.71.69.69,0,0,0,.44.09,1.75,1.75,0,0,0,.63-.18l6-3A1.16,1.16,0,0,0,88.59,55.23Z"/><path class="cls-1" d="M70.55,14,58.1,8.44,53.26.66A1.31,1.31,0,0,0,52.12,0H34.51a1.33,1.33,0,0,0-1.15.66L28.29,8.85H21.05a1.38,1.38,0,0,0-1.37,1.39v13a1.38,1.38,0,0,0,1.4,1.36H26a5.84,5.84,0,0,0,11.47,0H50.73a5.83,5.83,0,0,0,11.46,0h0c0-.15,7.31-.15,7.62-.15A1.41,1.41,0,0,0,71.2,23.1l.16-7.87A1.26,1.26,0,0,0,70.55,14ZM34.67,23.48a3,3,0,0,1-3,2.9,3,3,0,0,1,0-6.07h0a3.08,3.08,0,0,1,3,3ZM32.16,8.8l3.48-5.94H51.27L54.69,8.8ZM56.29,26.38a3,3,0,0,1,0-6.07h0a3,3,0,1,1,0,6.07Z"/><path class="cls-1" d="M70.55,61.82,58.1,56.25l-4.84-7.78a1.31,1.31,0,0,0-1.14-.66H34.51a1.33,1.33,0,0,0-1.15.66l-5.07,8.19H21.05a1.38,1.38,0,0,0-1.37,1.39V71a1.38,1.38,0,0,0,1.4,1.36H26a5.83,5.83,0,0,0,11.47,0H50.73a5.83,5.83,0,0,0,11.46,0h0c0-.15,7.31-.15,7.62-.15a1.41,1.41,0,0,0,1.39-1.31l.16-7.86A1.26,1.26,0,0,0,70.55,61.82ZM34.67,71.29a3,3,0,0,1-3,2.9,3,3,0,0,1,0-6.07h0a3.08,3.08,0,0,1,3,3ZM32.16,56.62l3.48-5.95H51.27l3.42,5.95ZM56.29,74.19a3,3,0,0,1,0-6.07h0a3,3,0,1,1,0,6.07Z"/></g></g></svg>