<svg xmlns="http://www.w3.org/2000/svg" viewBox="0 0 122.51 122.51"><defs><style>.cls-1{fill:#f49834;}.cls-2{fill:#fff;}</style></defs><title>Schaden_melden_</title><g id="Ebene_2" data-name="Ebene 2"><g id="Ebene_1-2" data-name="Ebene 1"><circle id="Ellipse_173" data-name="Ellipse 173" class="cls-1" cx="61.25" cy="61.25" r="61.25"/><g id="Komponente_11_3" data-name="Komponente 11 3"><path id="Pfad_1513" data-name="Pfad 1513" class="cls-2" d="M84.67,48.78l-16.4-16.4a2.2,2.2,0,0,0-1.55-.65H44.85a7.67,7.67,0,0,0-7.65,7.66V83.12a7.67,7.67,0,0,0,7.65,7.66H77.66a7.67,7.67,0,0,0,7.65-7.66V50.32A2.17,2.17,0,0,0,84.67,48.78Zm-5.12,1.06H67.2V37.49ZM77.66,86.4H44.86a3.28,3.28,0,0,1-3.28-3.28V39.39a3.28,3.28,0,0,1,3.28-3.28h18V52A2.19,2.19,0,0,0,65,54.21H80.94V83.12a3.28,3.28,0,0,1-3.28,3.28Z"/><path id="Pfad_1514" data-name="Pfad 1514" class="cls-2" d="M73.33,61.8H49.19a2.19,2.19,0,0,0,0,4.38H73.33a2.19,2.19,0,0,0,0-4.38Z"/><path id="Pfad_1515" data-name="Pfad 1515" class="cls-2" d="M73.33,72.74H49.19a2.19,2.19,0,1,0,0,4.37H73.33a2.19,2.19,0,0,0,0-4.37Z"/><path id="Pfad_1516" data-name="Pfad 1516" class="cls-2" d="M50.16,55.24h6a2.19,2.19,0,0,0,0-4.37h-6a2.19,2.19,0,0,0,0,4.37Z"/></g></g></g></svg>