<svg xmlns="http://www.w3.org/2000/svg" viewBox="0 0 48.11 59.04"><defs><style>.cls-1{fill:#fff;}</style></defs><title>Schaden_melden_white</title><g id="Ebene_2" data-name="Ebene 2"><g id="Ebene_1-2" data-name="Ebene 1"><g id="Komponente_11_3" data-name="Komponente 11 3"><path id="Pfad_1513" data-name="Pfad 1513" class="cls-1" d="M47.47,17,31.07.64A2.2,2.2,0,0,0,29.52,0H7.65A7.66,7.66,0,0,0,0,7.65V51.39A7.66,7.66,0,0,0,7.65,59h32.8a7.66,7.66,0,0,0,7.66-7.65V18.59A2.2,2.2,0,0,0,47.47,17Zm-5.12,1.07H30V5.76ZM40.46,54.67H7.66a3.28,3.28,0,0,1-3.28-3.28V7.65A3.28,3.28,0,0,1,7.66,4.37h18V20.29a2.19,2.19,0,0,0,2.19,2.19H43.73v28.9a3.28,3.28,0,0,1-3.27,3.29Z"/><path id="Pfad_1514" data-name="Pfad 1514" class="cls-1" d="M36.13,30.07H12a2.19,2.19,0,1,0,0,4.37H36.13a2.19,2.19,0,0,0,0-4.37Z"/><path id="Pfad_1515" data-name="Pfad 1515" class="cls-1" d="M36.13,41H12a2.19,2.19,0,1,0,0,4.37H36.13a2.19,2.19,0,0,0,0-4.37Z"/><path id="Pfad_1516" data-name="Pfad 1516" class="cls-1" d="M13,23.51h6a2.19,2.19,0,0,0,0-4.38H13a2.19,2.19,0,0,0,0,4.38Z"/></g></g></g></svg>