<svg xmlns="http://www.w3.org/2000/svg" viewBox="0 0 66.82 70.28"><defs><style>.cls-1{fill:#212121;}</style></defs><title>Werkstatt</title><g id="Ebene_2" data-name="Ebene 2"><g id="Ebene_1-2" data-name="Ebene 1"><path class="cls-1" d="M65.33,59.71,39.86,33.33l-.26-.28L54.54,18.1l2.84,2.83a1.33,1.33,0,0,0,1,.4h.15a1.32,1.32,0,0,0,1-.63l5.81-9.28a1.33,1.33,0,0,0-.2-1.67L61,5.69a1.33,1.33,0,0,0-1.66-.19l-9.29,5.81h0a1.33,1.33,0,0,0-.43,1.84,2.11,2.11,0,0,0,.19.23l2.83,2.83L37.75,31.13l-11.6-12A13.65,13.65,0,0,0,10,.49a1.33,1.33,0,0,0-.93,1.64,1.26,1.26,0,0,0,.33.57L15,8.51l-1.46,5.11L8.39,14.91,2.84,9.17h0A1.34,1.34,0,0,0,1,9.13a1.28,1.28,0,0,0-.34.57,13.64,13.64,0,0,0,18,16.75L30.14,38.38l.18.18L23,45.86,21.11,44a1.34,1.34,0,0,0-1.89,0L.84,62.31a1.34,1.34,0,0,0,0,1.89l5.7,5.7a1.35,1.35,0,0,0,1.89,0L26.78,51.61a1.34,1.34,0,0,0,0-1.89l-1.91-1.94,7.3-7.3L57.83,67a5.22,5.22,0,0,0,3.69,1.6h.08a5.22,5.22,0,0,0,3.66-1.49A5.29,5.29,0,0,0,65.33,59.71Zm-2.51,4.82a2.34,2.34,0,0,1-3.3-.07L21.66,25.09a.28.28,0,0,1,0-.4l2.95-2.84a.3.3,0,0,1,.42,0L62.88,61.22A2.34,2.34,0,0,1,62.82,64.53Z"/></g></g></svg>