<svg xmlns="http://www.w3.org/2000/svg" width="53.703" height="53.705" viewBox="0 0 53.703 53.705">
  <path id="Instagram" d="M17.9,26.853A8.95,8.95,0,1,1,26.853,35.8,8.95,8.95,0,0,1,17.9,26.853m-4.839,0A13.789,13.789,0,1,0,26.853,13.064,13.788,13.788,0,0,0,13.064,26.853m24.9-14.335A3.223,3.223,0,1,0,41.188,9.3a3.224,3.224,0,0,0-3.223,3.221M16,48.71a14.833,14.833,0,0,1-4.987-.924,8.352,8.352,0,0,1-3.089-2.009,8.3,8.3,0,0,1-2.009-3.087A14.833,14.833,0,0,1,5,37.7c-.13-2.831-.156-3.681-.156-10.852S4.867,18.834,5,16a14.9,14.9,0,0,1,.924-4.987A8.352,8.352,0,0,1,7.928,7.926a8.29,8.29,0,0,1,3.089-2.009A14.833,14.833,0,0,1,16,4.993c2.831-.13,3.681-.156,10.849-.156s8.019.028,10.852.156a14.9,14.9,0,0,1,4.987.924,8.325,8.325,0,0,1,3.089,2.009,8.335,8.335,0,0,1,2.009,3.089A14.833,14.833,0,0,1,48.712,16c.13,2.833.156,3.681.156,10.852s-.026,8.019-.156,10.852a14.889,14.889,0,0,1-.924,4.987,8.891,8.891,0,0,1-5.1,5.1,14.833,14.833,0,0,1-4.987.924c-2.831.13-3.681.156-10.852.156S18.834,48.84,16,48.71M15.782.163A19.7,19.7,0,0,0,9.264,1.41a13.177,13.177,0,0,0-4.757,3.1,13.14,13.14,0,0,0-3.1,4.757A19.7,19.7,0,0,0,.163,15.782C.03,18.645,0,19.56,0,26.853S.03,35.06.163,37.923A19.7,19.7,0,0,0,1.41,44.441a13.13,13.13,0,0,0,3.1,4.757,13.168,13.168,0,0,0,4.757,3.1,19.708,19.708,0,0,0,6.518,1.247c2.865.13,3.778.163,11.071.163s8.208-.03,11.071-.163A19.7,19.7,0,0,0,44.441,52.3,13.73,13.73,0,0,0,52.3,44.441a19.641,19.641,0,0,0,1.247-6.518c.13-2.865.161-3.778.161-11.071s-.03-8.208-.161-11.071A19.7,19.7,0,0,0,52.3,9.264a13.205,13.205,0,0,0-3.1-4.757,13.169,13.169,0,0,0-4.755-3.1A19.665,19.665,0,0,0,37.925.163C35.062.033,34.147,0,26.855,0S18.647.03,15.782.163" fill="#fff"/>
</svg>
